<?xml version="1.0" encoding="UTF-8"?>
<svg id="Layer_1" data-name="Layer 1" xmlns="http://www.w3.org/2000/svg" viewBox="0 0 1224 792">
  <path d="M527.17,324h-72.45v57.27h7.46v-25.7c0-12.95,10.49-23.44,23.44-23.44,1.84,0,3.63.22,5.35.62v138.2h36.2v-138.2c1.72-.4,3.51-.62,5.35-.62,12.95,0,23.44,10.49,23.44,23.44v25.7h7.46v-57.27h-36.25Z"/>
  <path d="M755.85,324h-72.45v57.27h7.46v-25.7c0-12.95,10.49-23.44,23.44-23.44,1.84,0,3.63.22,5.35.62v138.2h36.2v-138.2c1.72-.4,3.51-.62,5.35-.62,12.95,0,23.44,10.49,23.44,23.44v25.7h7.46v-57.27h-36.25Z"/>
  <path d="M865.13,323.72v65.75c0,5.82-4.53,10.78-10.34,10.98-6.11.22-11.13-4.67-11.13-10.73v-66.01h-45.93v62.38c0,17.42,14.12,31.54,31.54,31.54h5.98v44.42h-20.4v8.01h75.02v-8.01h-20.4v-44.42h5.98c17.42,0,31.54-14.12,31.54-31.54v-62.38h-41.86,0Z"/>
  <path d="M110.24,324v146.95h42.78v-56.03h65.92v-90.91h-108.7,0ZM170.93,389.21c-16.58,0-30.02-13.44-30.02-30.02s13.44-30.02,30.02-30.02,30.02,13.44,30.02,30.02-13.44,30.02-30.02,30.02Z"/>
  <path d="M912.63,324v146.95h42.78v-56.03h65.92v-90.91h-108.7ZM973.33,389.21c-16.58,0-30.02-13.44-30.02-30.02s13.44-30.02,30.02-30.02,30.02,13.44,30.02,30.02-13.44,30.02-30.02,30.02Z"/>
  <path d="M333.73,403.83v-79.83h-108.69v146.95h56.01v-51.94c14.12,0,25.57,11.45,25.57,25.57v26.37h27.12v-29.4c0-16.86-13.67-30.53-30.53-30.53h-22.16v-7.19h52.69-.01ZM255.7,359.18c0-16.58,13.44-30.02,30.02-30.02s30.02,13.44,30.02,30.02-13.44,30.02-30.02,30.02-30.02-13.44-30.02-30.02Z"/>
  <path d="M340.38,324v146.95h108.69v-146.95h-108.69ZM400.52,389.21c-16.58,0-30.02-13.44-30.02-30.02s13.44-30.02,30.02-30.02,30.02,13.44,30.02,30.02-13.44,30.02-30.02,30.02Z"/>
  <path d="M569.06,324v146.35h108.69v-146.35h-108.69ZM629.86,389.21c-16.58,0-30.02-13.44-30.02-30.02s13.44-30.02,30.02-30.02,30.02,13.44,30.02,30.02-13.44,30.02-30.02,30.02Z"/>
  <path d="M1135.67,397.18v-73.18h-108.69v146.69h108.69v-62.67h-24.87v29c0,14.12-11.45,25.57-25.57,25.57v-65.37l50.44-.04h0ZM1057.64,359.18c0-16.58,13.44-30.02,30.02-30.02s30.02,13.44,30.02,30.02-13.44,30.02-30.02,30.02-30.02-13.44-30.02-30.02Z"/>
</svg>